# xmcd
#
# Track frame offsets:
#	150
#	11022
#	21390
#	30307
#	43512
#	53875
#	62687
#	71995
#	85935
#	94632
#	104605
#	110165
#	123562
#	133220
#	145915
#	156800
#	171992
#	189910
#	203915
#	213890
#	226390
#	239240
#	254727
#
# Disc length: 3594 seconds
#
# Revision: 0
# Processed by: cddbd v1.5.2PL0 Copyright (c) Steve Scherf et al.
# Submitted via: audiograbber 1.83.01
#
DISCID=5b0e0817
DTITLE=The Small Faces - The Immediate Years [CD 1)
DYEAR=1995
DGENRE=Rock
TTITLE0=The Moments (featuring Steve Marriott) - You Really Got Me [mono]
TTITLE1=The Moments (featuring Steve Marriott) - Money, Money [mono]
TTITLE2=Watcha Gonna Do About It [mono]
TTITLE3=Sha La La La Lee
TTITLE4=Hey Girl [mono]
TTITLE5=My Mind's Eye [original single mix] [mono]
TTITLE6=My Mind's Eye [album mix] [mono]
TTITLE7=All Or Nothing [mono]
TTITLE8=Yesterday, Today And Tomorrow [mono]
TTITLE9=I Can't Make It [mono version]
TTITLE10=Just Passing [mono version]
TTITLE11=Here Comes The Nice [mono version]
TTITLE12=Talk To You [mono version]
TTITLE13=Itchycoo Park [mono version]
TTITLE14=I'm Only Dreaming [mono version]
TTITLE15=Tin Soldier [mono version]
TTITLE16=I Feel Much Better [mono version]
TTITLE17=Lazy Sunday [mono version]
TTITLE18=Rollin' Over [mono version]
TTITLE19=The Universal [mono version]
TTITLE20=Donkey Rides, A Penny, A Glass [mono version]
TTITLE21=AfterGlow [Of Your Love] [mono single edit]
TTITLE22=Wham, Bam, Thank You Mam [mono version]
EXTD=
EXTT0=
EXTT1=
EXTT2=
EXTT3=
EXTT4=
EXTT5=
EXTT6=
EXTT7=
EXTT8=
EXTT9=
EXTT10=
EXTT11=
EXTT12=
EXTT13=
EXTT14=
EXTT15=
EXTT16=
EXTT17=
EXTT18=
EXTT19=
EXTT20=
EXTT21=
EXTT22=
PLAYORDER=
